<svg enable-background="new 0 0 48 48" viewBox="0 0 48 48" xmlns="http://www.w3.org/2000/svg"><circle cx="24" cy="24" fill="#0f99ea" r="20"/><path d="m10.7 24c0-2.8.4-5.2 1.2-7.1.6-1.4 1.4-2.7 2.5-3.8s2.2-1.9 3.5-2.5c1.7-.7 3.6-1.1 5.8-1.1 4 0 7.1 1.3 9.5 3.8s3.6 6 3.6 10.5-1.2 7.9-3.5 10.5c-2.4 2.5-5.5 3.8-9.5 3.8s-7.2-1.3-9.5-3.8c-2.4-2.5-3.6-5.9-3.6-10.3zm5.6-.2c0 3.1.7 5.5 2.1 7.1s3.2 2.4 5.4 2.4 3.9-.8 5.3-2.4 2.1-4 2.1-7.2-.7-5.5-2-7.1c-1.4-1.6-3.1-2.3-5.4-2.3-2.2 0-4 .8-5.4 2.4-1.4 1.5-2.1 3.9-2.1 7.1z" fill="#fff"/></svg>