<svg enable-background="new 0 0 48 48" viewBox="0 0 48 48" xmlns="http://www.w3.org/2000/svg"><circle cx="24" cy="24" fill="#834c92" r="20"/><path d="m14 36.3v-27.6h11.4c2.9 0 5 .2 6.3.7s2.3 1.4 3.1 2.6c.8 1.3 1.2 2.7 1.2 4.3 0 2.1-.6 3.8-1.8 5.1s-3 2.2-5.3 2.5c1.2.7 2.1 1.5 2.9 2.3s1.8 2.3 3.1 4.5l3.3 5.4h-6.5l-3.9-6c-1.4-2.1-2.4-3.5-2.9-4.1s-1.1-.9-1.6-1.1c-.6-.2-1.5-.3-2.7-.3h-1.1v11.5h-5.5zm5.4-16h4c2.6 0 4.2-.1 4.9-.3.6-.2 1.2-.6 1.5-1.2.4-.6.6-1.2.6-2.1s-.2-1.7-.7-2.2c-.5-.6-1.2-.9-2-1.1-.4-.1-1.8-.1-4-.1h-4.2v7z" fill="#fff"/></svg>