<svg viewBox="0 0 40 40" xmlns="http://www.w3.org/2000/svg"><circle cx="20" cy="20" fill="#0dd426" r="20"/><path d="m24 27.21v-4.64h11.67v11a14.71 14.71 0 0 1 -5 3 17.81 17.81 0 0 1 -6.57 1.28 14.45 14.45 0 0 1 -7.31-1.85 11.44 11.44 0 0 1 -4.72-5.19 17.17 17.17 0 0 1 -1.58-7.35 16.18 16.18 0 0 1 1.77-7.66 12 12 0 0 1 5.16-5.13 13.55 13.55 0 0 1 6.44-1.37q5 0 7.83 2.16a9.75 9.75 0 0 1 3.63 5.95l-5.4 1a5.81 5.81 0 0 0 -2.14-3.21 6.38 6.38 0 0 0 -3.92-1.18 7.25 7.25 0 0 0 -5.66 2.32q-2.11 2.31-2.11 6.86c0 3.28.71 5.73 2.13 7.37a7 7 0 0 0 5.59 2.45 9.14 9.14 0 0 0 3.42-.68 11.59 11.59 0 0 0 2.95-1.67v-3.5z" fill="#fff" transform="translate(-4 -4)"/></svg>